<svg width="134" height="24" viewBox="0 0 134 24" fill="none" xmlns="http://www.w3.org/2000/svg">
<path d="M0 19.4805V0.909092H7.35955C12.4208 0.909092 14.9515 3.0303 14.9515 7.27273V7.37662C14.9515 9.31602 14.3231 10.8139 13.0664 11.8701C11.8097 12.9091 9.99349 13.4286 7.61777 13.4286H5.83599V19.4805H0ZM5.83599 9.48052H7.04967C8.61626 9.48052 9.39956 8.78788 9.39956 7.4026V7.2987C9.39956 5.96537 8.62487 5.2987 7.07549 5.2987H5.83599V9.48052Z" fill="black"/>
<path d="M22.9962 19.8182C20.7754 19.8182 18.9678 19.2035 17.5733 17.974C16.1961 16.7446 15.5075 15.039 15.5075 12.8571V12.6494C15.5075 10.5022 16.2219 8.77922 17.6508 7.48052C19.0969 6.1645 20.8787 5.50649 22.9962 5.50649C25.0276 5.50649 26.7061 6.1039 28.0316 7.2987C29.3572 8.49351 30.02 10.2511 30.02 12.5714V13.8182H20.6463C20.7151 14.632 20.9734 15.2554 21.421 15.6883C21.8686 16.1212 22.4539 16.3377 23.1769 16.3377C24.3992 16.3377 25.105 15.8528 25.2944 14.8831H30.0458C29.8392 16.4589 29.142 17.6797 27.9542 18.5455C26.7663 19.3939 25.1136 19.8182 22.9962 19.8182ZM20.6721 11.1429H25.1136C25.062 9.58442 24.3562 8.8052 22.9962 8.8052C22.3592 8.8052 21.8341 9.00433 21.421 9.4026C21.025 9.80087 20.7754 10.381 20.6721 11.1429Z" fill="black"/>
<path d="M31.7635 19.4805V5.89611H36.8506V8.64935C37.6597 6.65801 39.1058 5.67965 41.1888 5.71429V10.4935C38.2967 10.3377 36.8506 11.2468 36.8506 13.2208V19.4805H31.7635Z" fill="black"/>
<path d="M53.4124 18.6494C52.2934 19.4286 50.7354 19.8182 48.7384 19.8182C46.7414 19.8182 45.1921 19.4199 44.0903 18.6234C42.9885 17.8095 42.4204 16.6407 42.386 15.1169H47.0341C47.1202 15.6017 47.2837 15.9567 47.5247 16.1818C47.7658 16.4069 48.1617 16.5195 48.7126 16.5195C49.6594 16.5195 50.1329 16.1991 50.1329 15.5584C50.1329 15.2468 49.9607 15.013 49.6164 14.8571C49.2721 14.684 48.6523 14.5368 47.7572 14.4156C45.8807 14.2078 44.5379 13.7922 43.7288 13.1688C42.9197 12.5455 42.5151 11.5238 42.5151 10.1039C42.5151 8.61472 43.0746 7.48052 44.1936 6.7013C45.3298 5.90476 46.7759 5.50649 48.5318 5.50649C52.3709 5.50649 54.4281 7.00433 54.7035 10H50.1329C49.9779 9.15152 49.4701 8.72727 48.6093 8.72727C47.7141 8.72727 47.2665 9.03896 47.2665 9.66234C47.2665 9.97403 47.4301 10.2078 47.7572 10.3636C48.0842 10.5022 48.6265 10.6147 49.384 10.7013C51.4326 10.9437 52.8959 11.3766 53.7739 12C54.6519 12.6061 55.0909 13.619 55.0909 15.039C55.0909 16.6494 54.5314 17.8528 53.4124 18.6494Z" fill="black"/>
<path d="M63.7498 16.052C65.2992 16.052 66.0739 14.9524 66.0739 12.7532V12.5714C66.0739 10.3896 65.2992 9.2987 63.7498 9.2987C62.1488 9.2987 61.3483 10.3636 61.3483 12.4935V12.7013C61.3483 14.9351 62.1488 16.052 63.7498 16.052ZM63.724 19.8182C61.5377 19.8182 59.7387 19.2035 58.327 17.974C56.9154 16.7273 56.2095 15.0216 56.2095 12.8571V12.6494C56.2095 10.4848 56.9154 8.76191 58.327 7.48052C59.7559 6.18182 61.5635 5.53247 63.7498 5.53247C65.919 5.53247 67.7094 6.1645 69.121 7.42857C70.5327 8.69264 71.2385 10.3896 71.2385 12.5195V12.7273C71.2385 14.9091 70.5241 16.6407 69.0952 17.9221C67.6835 19.1861 65.8932 19.8182 63.724 19.8182Z" fill="black"/>
<path d="M73.0197 19.4805V5.89611H78.1068V8.07792C79.002 6.38095 80.4911 5.53247 82.5742 5.53247C83.8998 5.53247 84.9499 5.95671 85.7246 6.80519C86.5165 7.65368 86.9124 8.90043 86.9124 10.5455V19.4805H81.8253V11.6883C81.8253 10.303 81.2572 9.61039 80.121 9.61039C78.7782 9.61039 78.1068 10.3983 78.1068 11.974V19.4805H73.0197Z" fill="black"/>
<path d="M93.1592 19.8182C91.8336 19.8182 90.7318 19.4805 89.8538 18.8052C88.9931 18.1126 88.5627 17.0823 88.5627 15.7143C88.5627 14.1558 89.1652 13.0303 90.3703 12.3377C91.5926 11.6277 93.4088 11.2727 95.8189 11.2727H96.981V11.039C96.981 10.381 96.8777 9.88745 96.6711 9.55844C96.4645 9.22944 96.0427 9.06494 95.4058 9.06494C94.4417 9.06494 93.908 9.54978 93.8047 10.5195H89.0533C89.1566 8.89178 89.7936 7.65368 90.9642 6.80519C92.1521 5.93939 93.7359 5.50649 95.7156 5.50649C97.7298 5.50649 99.2792 5.93939 100.364 6.80519C101.466 7.65368 102.016 8.95238 102.016 10.7013V19.4805H97.1101V17.9221C96.3354 19.1861 95.0184 19.8182 93.1592 19.8182ZM94.9926 16.3896C95.5779 16.3896 96.0513 16.2424 96.4129 15.9481C96.7916 15.6364 96.981 15.2294 96.981 14.7273V14.026H95.8964C95.0356 14.026 94.4331 14.1212 94.0888 14.3117C93.7445 14.5022 93.5723 14.8398 93.5723 15.3247C93.5723 16.0346 94.0458 16.3896 94.9926 16.3896Z" fill="black"/>
<path d="M104.494 19.4805V0H109.556V19.4805H104.494Z" fill="black"/>
<path d="M112.236 19.4805V0H117.298V19.4805H112.236Z" fill="black"/>
<path d="M121.966 24L124.161 18.1299L118.764 5.89611H124.265L126.821 12.6753L129.197 5.89611H134L126.795 24H121.966Z" fill="black"/>
</svg>
