<svg width="41" height="30" viewBox="0 0 41 30" fill="none" xmlns="http://www.w3.org/2000/svg">
<g clip-path="url(#clip0_0_293)">
<path d="M0.5 20H40.5V30H0.5V20Z" fill="#1EB53A"/>
<path d="M0.5 0H40.5V10H0.5V0Z" fill="#0099B5"/>
<path d="M0.5 9.6001H40.5V20.4001H0.5V9.6001Z" fill="#CE1126"/>
<path d="M0.5 10.2H40.5V19.8H0.5V10.2Z" fill="white"/>
<path d="M8.8998 8.39995C10.888 8.39995 12.4998 6.78818 12.4998 4.79995C12.4998 2.81173 10.888 1.19995 8.8998 1.19995C6.91158 1.19995 5.2998 2.81173 5.2998 4.79995C5.2998 6.78818 6.91158 8.39995 8.8998 8.39995Z" fill="white"/>
<path d="M10.1001 8.39995C12.0883 8.39995 13.7001 6.78818 13.7001 4.79995C13.7001 2.81173 12.0883 1.19995 10.1001 1.19995C8.1119 1.19995 6.50012 2.81173 6.50012 4.79995C6.50012 6.78818 8.1119 8.39995 10.1001 8.39995Z" fill="#0099B5"/>
<path d="M16.8191 6.96118L16.5911 7.64518L16.9391 7.76518" fill="white"/>
<path d="M16.819 6.96118L17.047 7.64518L16.699 7.76518" fill="white"/>
<path d="M17.5033 7.45854L16.7823 7.45307L16.7757 7.82112" fill="white"/>
<path d="M17.5032 7.45857L16.9231 7.88678L16.7014 7.5929" fill="white"/>
<path d="M16.1333 7.45857L16.7134 7.88678L16.9351 7.5929" fill="white"/>
<path d="M16.133 7.45866L16.854 7.45319L16.8606 7.82124" fill="white"/>
<path d="M17.2416 8.26341L17.024 7.57603L16.6719 7.68349" fill="white"/>
<path d="M17.2413 8.26345L16.6548 7.84409L16.8658 7.54246" fill="white"/>
<path d="M16.3949 8.26345L16.9814 7.84409L16.7704 7.54246" fill="white"/>
<path d="M16.3949 8.26341L16.6125 7.57603L16.9646 7.68349" fill="white"/>
<path d="M16.8188 4.0813L16.5908 4.7653L16.9388 4.8853" fill="white"/>
<path d="M16.8188 4.0813L17.0468 4.7653L16.6988 4.8853" fill="white"/>
<path d="M17.5031 4.57866L16.7821 4.57318L16.7755 4.94123" fill="white"/>
<path d="M17.5029 4.57869L16.9228 5.0069L16.7012 4.71301" fill="white"/>
<path d="M16.1332 4.57869L16.7133 5.0069L16.9349 4.71301" fill="white"/>
<path d="M16.1329 4.57878L16.8539 4.57331L16.8605 4.94136" fill="white"/>
<path d="M17.2412 5.38353L17.0236 4.69614L16.6715 4.80361" fill="white"/>
<path d="M17.2412 5.38369L16.6547 4.96433L16.8657 4.6627" fill="white"/>
<path d="M16.3945 5.38369L16.981 4.96433L16.77 4.6627" fill="white"/>
<path d="M16.3944 5.38377L16.612 4.69639L16.9641 4.80386" fill="white"/>
<path d="M16.8188 1.20056L16.5908 1.88456L16.9388 2.00456" fill="white"/>
<path d="M16.8188 1.20056L17.0468 1.88456L16.6988 2.00456" fill="white"/>
<path d="M17.5031 1.69816L16.7821 1.69269L16.7755 2.06074" fill="white"/>
<path d="M17.5029 1.6982L16.9228 2.12641L16.7012 1.83252" fill="white"/>
<path d="M16.1332 1.69844L16.7133 2.12665L16.9349 1.83277" fill="white"/>
<path d="M16.1329 1.69853L16.8539 1.69306L16.8605 2.06111" fill="white"/>
<path d="M17.2413 2.50328L17.0237 1.8159L16.6717 1.92336" fill="white"/>
<path d="M17.2411 2.50319L16.6546 2.08384L16.8656 1.78221" fill="white"/>
<path d="M16.3945 2.50319L16.981 2.08384L16.77 1.78221" fill="white"/>
<path d="M16.3944 2.50316L16.612 1.81577L16.9641 1.92324" fill="white"/>
<path d="M19.6988 6.96118L19.4708 7.64518L19.8188 7.76518" fill="white"/>
<path d="M19.6988 6.96118L19.9268 7.64518L19.5788 7.76518" fill="white"/>
<path d="M20.3831 7.45854L19.6621 7.45307L19.6555 7.82112" fill="white"/>
<path d="M20.3829 7.45857L19.8028 7.88678L19.5812 7.5929" fill="white"/>
<path d="M19.0132 7.45857L19.5933 7.88678L19.8149 7.5929" fill="white"/>
<path d="M19.0129 7.45866L19.7339 7.45319L19.7405 7.82124" fill="white"/>
<path d="M20.1213 8.26341L19.9037 7.57603L19.5517 7.68349" fill="white"/>
<path d="M20.1213 8.26369L19.5348 7.84434L19.7458 7.54271" fill="white"/>
<path d="M19.2748 8.26369L19.8613 7.84434L19.6503 7.54271" fill="white"/>
<path d="M19.2748 8.26365L19.4924 7.57627L19.8444 7.68374" fill="white"/>
<path d="M19.6987 4.0813L19.4707 4.7653L19.8187 4.8853" fill="white"/>
<path d="M19.6986 4.0813L19.9266 4.7653L19.5786 4.8853" fill="white"/>
<path d="M20.383 4.57866L19.662 4.57318L19.6554 4.94123" fill="white"/>
<path d="M20.3828 4.57869L19.8027 5.0069L19.5811 4.71301" fill="white"/>
<path d="M19.0131 4.57869L19.5931 5.0069L19.8148 4.71301" fill="white"/>
<path d="M19.0128 4.57878L19.7338 4.57331L19.7404 4.94136" fill="white"/>
<path d="M20.1212 5.3834L19.9036 4.69602L19.5515 4.80349" fill="white"/>
<path d="M20.1212 5.38369L19.5347 4.96433L19.7457 4.6627" fill="white"/>
<path d="M19.2747 5.38369L19.8612 4.96433L19.6501 4.6627" fill="white"/>
<path d="M19.2744 5.38365L19.492 4.69627L19.8441 4.80373" fill="white"/>
<path d="M19.6987 1.20056L19.4707 1.88456L19.8187 2.00456" fill="white"/>
<path d="M19.6986 1.20056L19.9266 1.88456L19.5786 2.00456" fill="white"/>
<path d="M20.383 1.69816L19.662 1.69269L19.6554 2.06074" fill="white"/>
<path d="M20.3828 1.6982L19.8027 2.12641L19.5811 1.83252" fill="white"/>
<path d="M19.0131 1.69844L19.5931 2.12665L19.8148 1.83277" fill="white"/>
<path d="M19.0128 1.69853L19.7338 1.69306L19.7404 2.06111" fill="white"/>
<path d="M20.1213 2.5034L19.9037 1.81602L19.5517 1.92348" fill="white"/>
<path d="M20.1212 2.50331L19.5347 2.08396L19.7457 1.78233" fill="white"/>
<path d="M19.2747 2.50331L19.8612 2.08396L19.6501 1.78233" fill="white"/>
<path d="M19.2747 2.50328L19.4923 1.8159L19.8443 1.92336" fill="white"/>
<path d="M22.5794 6.96118L22.3514 7.64518L22.6994 7.76518" fill="white"/>
<path d="M22.5795 6.96118L22.8075 7.64518L22.4595 7.76518" fill="white"/>
<path d="M23.2638 7.45866L22.5428 7.45319L22.5362 7.82124" fill="white"/>
<path d="M23.2635 7.45857L22.6835 7.88678L22.4618 7.5929" fill="white"/>
<path d="M21.8946 7.4587L22.4746 7.8869L22.6963 7.59302" fill="white"/>
<path d="M21.8952 7.45878L22.6162 7.45331L22.6228 7.82136" fill="white"/>
<path d="M23.0039 8.26353L22.7863 7.57615L22.4342 7.68362" fill="white"/>
<path d="M23.0039 8.26369L22.4174 7.84434L22.6284 7.54271" fill="white"/>
<path d="M22.1565 8.26369L22.743 7.84434L22.532 7.54271" fill="white"/>
<path d="M22.1565 8.26365L22.3741 7.57627L22.7262 7.68374" fill="white"/>
<path d="M22.5796 4.08118L22.3516 4.76518L22.6996 4.88518" fill="white"/>
<path d="M22.5796 4.08118L22.8076 4.76518L22.4596 4.88518" fill="white"/>
<path d="M23.2641 4.57878L22.5431 4.57331L22.5365 4.94136" fill="white"/>
<path d="M23.2639 4.57881L22.6838 5.00702L22.4622 4.71314" fill="white"/>
<path d="M21.8948 4.57881L22.4749 5.00702L22.6965 4.71314" fill="white"/>
<path d="M21.8945 4.5789L22.6155 4.57343L22.6221 4.94148" fill="white"/>
<path d="M23.0039 5.38377L22.7863 4.69639L22.4342 4.80386" fill="white"/>
<path d="M23.0039 5.38393L22.4174 4.96458L22.6284 4.66295" fill="white"/>
<path d="M22.1565 5.38393L22.743 4.96458L22.532 4.66295" fill="white"/>
<path d="M22.1565 5.38389L22.3741 4.69651L22.7262 4.80398" fill="white"/>
<path d="M22.5794 1.20081L22.3514 1.88481L22.6994 2.00481" fill="white"/>
<path d="M22.5795 1.20081L22.8075 1.88481L22.4595 2.00481" fill="white"/>
<path d="M23.2638 1.69816L22.5428 1.69269L22.5362 2.06074" fill="white"/>
<path d="M23.2638 1.6982L22.6837 2.12641L22.462 1.83252" fill="white"/>
<path d="M21.8946 1.69844L22.4746 2.12665L22.6963 1.83277" fill="white"/>
<path d="M21.8952 1.69853L22.6162 1.69306L22.6228 2.06111" fill="white"/>
<path d="M23.0039 2.50328L22.7863 1.8159L22.4342 1.92336" fill="white"/>
<path d="M23.0037 2.50331L22.4172 2.08396L22.6282 1.78233" fill="white"/>
<path d="M22.1562 2.50307L22.7427 2.08372L22.5317 1.78209" fill="white"/>
<path d="M22.156 2.50303L22.3736 1.81565L22.7257 1.92312" fill="white"/>
<path d="M11.0582 6.96118L10.8302 7.64518L11.1782 7.76518" fill="white"/>
<path d="M11.0581 6.96118L11.2861 7.64518L10.9381 7.76518" fill="white"/>
<path d="M11.7434 7.45878L11.0225 7.45331L11.0159 7.82136" fill="white"/>
<path d="M11.7433 7.45882L11.1632 7.88703L10.9415 7.59314" fill="white"/>
<path d="M10.3734 7.4587L10.9535 7.8869L11.1752 7.59302" fill="white"/>
<path d="M10.3731 7.45878L11.0941 7.45331L11.1007 7.82136" fill="white"/>
<path d="M11.4806 8.26341L11.263 7.57603L10.9109 7.68349" fill="white"/>
<path d="M11.4804 8.26345L10.8939 7.84409L11.1049 7.54246" fill="white"/>
<path d="M10.635 8.26345L11.2215 7.84409L11.0105 7.54246" fill="white"/>
<path d="M10.6348 8.26341L10.8524 7.57603L11.2044 7.68349" fill="white"/>
<path d="M13.9381 6.9613L13.7101 7.6453L14.0581 7.7653" fill="white"/>
<path d="M13.9381 6.9613L14.1661 7.6453L13.8181 7.7653" fill="white"/>
<path d="M14.6232 7.45878L13.9022 7.45331L13.8956 7.82136" fill="white"/>
<path d="M14.6229 7.4587L14.0428 7.8869L13.8212 7.59302" fill="white"/>
<path d="M13.2533 7.45882L13.8334 7.88703L14.055 7.59314" fill="white"/>
<path d="M13.253 7.45891L13.974 7.45343L13.9806 7.82148" fill="white"/>
<path d="M14.3603 8.26365L14.1428 7.57627L13.7907 7.68374" fill="white"/>
<path d="M14.3601 8.26369L13.7736 7.84434L13.9846 7.54271" fill="white"/>
<path d="M13.5146 8.26369L14.1011 7.84434L13.8901 7.54271" fill="white"/>
<path d="M13.5145 8.26365L13.7321 7.57627L14.0842 7.68374" fill="white"/>
<path d="M13.9381 4.08118L13.7101 4.76518L14.0581 4.88518" fill="white"/>
<path d="M13.9381 4.08118L14.1661 4.76518L13.8181 4.88518" fill="white"/>
<path d="M14.6232 4.57866L13.9022 4.57318L13.8956 4.94123" fill="white"/>
<path d="M14.6229 4.57869L14.0428 5.0069L13.8212 4.71301" fill="white"/>
<path d="M13.2533 4.57869L13.8334 5.0069L14.055 4.71301" fill="white"/>
<path d="M13.253 4.57878L13.974 4.57331L13.9806 4.94136" fill="white"/>
<path d="M14.3603 5.38377L14.1428 4.69639L13.7907 4.80386" fill="white"/>
<path d="M14.3601 5.38381L13.7736 4.96445L13.9846 4.66282" fill="white"/>
<path d="M13.5146 5.38381L14.1011 4.96445L13.8901 4.66282" fill="white"/>
<path d="M13.5145 5.38365L13.7321 4.69627L14.0842 4.80373" fill="white"/>
</g>
<defs>
<clipPath id="clip0_0_293">
<rect x="0.5" width="40" height="30" rx="4.54545" fill="white"/>
</clipPath>
</defs>
</svg>
